#!OML:ASF E:\id_vita\Project 1\Capture day 1\Session 1\Female.ASF
:FULLY-SPECIFIED
:DEGREES
1241
root 0.474328 26.8848 1.21639 788.97 99.8103 748.308
lowerback 8.03369 0.952796 -6.86301
upperback 3.26548 0.848735 -2.07557
thorax -1.17072 0.445519 1.62527
lowerneck -3.82183 4.65057 -5.3594
upperneck -6.6343 6.61204 1.81206
head -1.68737 3.48186 1.43819
rclavicle 5.56597e-015 -4.21423e-014
rhumerus -5.45676 12.5792 -100.57
rradius 37.7519
rwrist 1.50979
rhand -25.0059 7.69361
rfingers 7.12502
rthumb 1.50582 -22.2808
lclavicle 5.56597e-015 -4.21423e-014
lhumerus 44.4576 63.1788 130.17
lradius 9.84817
lwrist -80.4726
lhand -12.583 24.3469
lfingers 7.12502
lthumb 13.4951 53.8897
rfemur -63.6972 1.51927 27.5203
rtibia 50.8746
rfoot -9.89514 -10.453
rtoes -9.85751
lfemur -64.6545 -3.23698 -16.8843
ltibia 40.0965
lfoot -13.1843 16.3106
ltoes 9.44908
1242
root 0.459829 26.8608 1.22243 788.745 99.868 747.923
lowerback 8.23772 1.01387 -6.92675
upperback 3.30374 0.911085 -2.09617
thorax -1.24866 0.478995 1.63091
lowerneck -2.57409 4.54652 -3.96258
upperneck -8.68282 6.34971 0.312891
head -2.44896 3.37986 0.67101
rclavicle -3.57812e-014 -3.73715e-014
rhumerus -5.13705 12.4615 -100.493
rradius 37.5365
rwrist 1.21086
rhand -25.4686 7.95841
rfingers 7.12502
rthumb 1.05903 -22.0187
lclavicle -3.57812e-014 -3.73715e-014
lhumerus 44.6387 63.0103 130.445
lradius 9.93429
lwrist -80.157
lhand -12.208 23.8908
lfingers 7.12502
lthumb 13.8565 53.4092
rfemur -63.8333 1.59821 27.3392
rtibia 52.183
rfoot -9.87113 -10.4349
rtoes -11.4383
lfemur -65.1759 -3.21025 -16.9213
ltibia 40.5915
lfoot -12.9586 16.1793
ltoes 7.98285
1243
root 0.441303 26.8291 1.22856 788.787 100.062 747.653
lowerback 8.44652 1.02747 -6.74905
upperback 3.2048 0.915178 -2.15067
thorax -1.46516 0.489453 1.47099
lowerneck -2.35522 4.33607 -4.0212
upperneck -9.46755 6.10604 0.599923
head -2.7591 3.27292 0.76108
rclavicle 1.59028e-014 -2.8625e-014
rhumerus -5.03733 12.4833 -100.608
rradius 37.2523
rwrist 1.03498
rhand -26.1619 8.15897
rfingers 7.12502
rthumb 0.389343 -21.8204
lclavicle 1.59028e-014 -2.8625e-014
lhumerus 44.7582 62.8622 130.599
lradius 10.0065
lwrist -80.0744
lhand -11.567 23.7119
lfingers 7.12502
lthumb 14.4743 53.1871
rfemur -64.1469 1.67417 27.3147
rtibia 53.4721
rfoot -9.89396 -10.422
rtoes -13.3131
lfemur -65.9154 -3.21047 -16.8005
ltibia 41.1037
lfoot -12.8704 16.0759
ltoes 6.73048
1244
root 0.419518 26.7928 1.22813 789.514 100.153 747.973
lowerback 8.54482 1.09308 -6.5498
upperback 3.0785 0.996129 -2.23584
thorax -1.65371 0.536543 1.26081
lowerneck -2.14734 4.16196 -4.05879
upperneck -10.2497 5.91635 0.868758
head -3.07018 3.19227 0.843604
rclavicle -5.56597e-015 4.45278e-014
rhumerus -4.60622 12.329 -100.588
rradius 36.804
rwrist 1.03423
rhand -26.637 8.30782
rfingers 7.12502
rthumb -0.0694744 -21.6719
lclavicle -5.56597e-015 4.45278e-014
lhumerus 43.2911 61.9017 129.023
lradius 10.0965
lwrist -78.8985
lhand -10.8264 23.5741
lfingers 7.12502
lthumb 15.1877 52.9967
rfemur -64.6397 1.81527 27.2292
rtibia 54.732
rfoot -10.1736 -10.5536
rtoes -13.6935
lfemur -66.826 -3.19363 -16.6685
ltibia 41.7422
lfoot -12.5495 16.0225
ltoes 3.92446
1245
root 0.413434 26.7747 1.23067 787.678 100.167 746.217
lowerback 8.99054 1.16034 -6.72758
upperback 3.1833 1.04442 -2.29387
thorax -1.79467 0.565898 1.28779
lowerneck -1.8241 3.95357 -4.00589
upperneck -11.1845 5.67253 0.992386
head -3.44918 3.08766 0.862902
rclavicle -6.36111e-015 5.1684e-014
rhumerus -3.92595 11.8406 -100.376
rradius 36.5632
rwrist 1.00126
rhand -26.707 8.3185
rfingers 7.12502
rthumb -0.137106 -21.6612
lclavicle -6.36111e-015 5.1684e-014
lhumerus 43.3831 61.4846 129.269
lradius 10.1006
lwrist -78.5011
lhand -10.3405 23.2586
lfingers 7.12502
lthumb 15.6558 52.6452
rfemur -64.5303 1.70603 26.8672
rtibia 55.9068
rfoot -10.3857 -10.8021
rtoes -13.094
lfemur -67.0948 -3.33016 -16.9613
ltibia 42.4448
lfoot -14.9571 16.0849
ltoes 11.9305
1246
root 0.395133 26.7266 1.24096 789.556 100.124 747.61
lowerback 8.90269 1.23271 -6.85882
upperback 3.16141 1.1333 -2.28126
thorax -1.77744 0.608371 1.36576
lowerneck -2.1344 3.7902 -4.37826
upperneck -11.9705 5.55609 1.41639
head -3.69467 3.0608 1.068
rclavicle -2.3059e-014 -8.98507e-014
rhumerus -3.27207 11.9669 -100.228
rradius 35.953
rwrist 2.34109
rhand -28.0378 9.28661
rfingers 7.12502
rthumb -1.42241 -20.6884
lclavicle -2.3059e-014 -8.98507e-014
lhumerus 44.6043 61.4953 130.52
lradius 10.1422
lwrist -78.3412
lhand -9.96764 22.8202
lfingers 7.12502
lthumb 16.0148 52.1783
rfemur -65.1705 2.14504 26.7495
rtibia 57.0281
rfoot -9.93022 -10.5185
rtoes -10.8306
lfemur -68.163 -3.00104 -16.8928
ltibia 43.2724
lfoot -14.6948 16.0001
ltoes 9.15125
1247
root 0.376702 26.6726 1.25089 791.604 100.216 749.179
lowerback 8.64835 1.32327 -6.82905
upperback 3.18063 1.2768 -2.24845
thorax -1.62802 0.673391 1.37358
lowerneck -2.18457 3.57482 -4.75744
upperneck -12.9103 5.37909 1.94088
head -4.04966 3.00278 1.30733
rclavicle -1.27222e-014 -4.05521e-014
rhumerus -2.65515 11.8969 -100.064
rradius 36.0878
rwrist 2.25328
rhand -27.2508 8.496
rfingers 7.12502
rthumb -0.662291 -21.4827
lclavicle -1.27222e-014 -4.05521e-014
lhumerus 42.7215 59.9703 128.326
lradius 10.2683
lwrist -76.0765
lhand -9.52428 22.7579
lfingers 7.12502
lthumb 16.4417 52.0812
rfemur -65.7698 2.56858 26.75
rtibia 58.071
rfoot -9.9975 -10.3927
rtoes -11.4163
lfemur -69.2742 -2.65164 -16.7064
ltibia 44.1572
lfoot -15.516 15.9133
ltoes 12.1011
1248
root 0.364709 26.6299 1.25455 791.73 100.37 749.111
lowerback 8.68965 1.38186 -6.77545
upperback 3.2326 1.35895 -2.21938
thorax -1.60254 0.712718 1.36521
lowerneck -1.96183 3.34802 -5.09171
upperneck -13.8968 5.17643 2.45229
head -4.47654 2.92744 1.53659
rclavicle 7.15625e-015 -3.97569e-015
rhumerus -2.14229 11.6947 -99.9085
rradius 36.0275
rwrist 2.56215
rhand -26.275 7.28213
rfingers 7.12502
rthumb 0.280169 -22.6974
lclavicle 7.15625e-015 -3.97569e-015
lhumerus 40.7603 58.4283 126.142
lradius 10.3628
lwrist -73.9102
lhand -9.16657 22.5542
lfingers 7.12502
lthumb 16.7861 51.8486
rfemur -66.0189 2.65275 26.6964
rtibia 59.0537
rfoot -10.0041 -10.3644
rtoes -11.6945
lfemur -70.0392 -2.53326 -16.6875
ltibia 45.12
lfoot -15.7101 15.6777
ltoes 11.4022
1249
root 0.351466 26.5855 1.25687 791.47 100.587 748.743
lowerback 8.99786 1.40473 -6.71543
upperback 3.24825 1.36938 -2.13904
thorax -1.75802 0.7218 1.40732
lowerneck -1.56151 3.227 -5.10318
upperneck -15.361 5.09422 2.65106
head -4.54323 2.89427 1.45757
rclavicle 1.35174e-014 2.8625e-014
rhumerus -1.56083 11.6749 -99.7207
rradius 35.7685
rwrist 3.06262
rhand -27.1776 7.92474
rfingers 7.12502
rthumb -0.591666 -22.0542
lclavicle 1.35174e-014 2.8625e-014
lhumerus 40.1368 57.7024 125.502
lradius 10.4385
lwrist -72.814
lhand -8.88668 22.055
lfingers 7.12502
lthumb 17.0555 51.3263
rfemur -66.1986 2.63966 26.6838
rtibia 59.9718
rfoot -10.0523 -9.92002
rtoes -10.2709
lfemur -70.7027 -2.46574 -16.672
ltibia 46.0377
lfoot -16.211 15.4202
ltoes 11.6179
1250
root 0.338516 26.535 1.26129 791.385 100.882 748.55
lowerback 9.38522 1.38902 -6.60751
upperback 3.26417 1.32779 -2.01836
thorax -1.95299 0.706046 1.46871
lowerneck -1.178 3.08535 -5.13764
upperneck -16.5593 4.96173 2.6848
head -4.97164 2.8579 1.46068
rclavicle -4.05521e-014 -8.74653e-015
rhumerus -0.861626 11.9237 -99.4726
rradius 35.5412
rwrist 3.15753
rhand -27.0564 8.00069
rfingers 7.12502
rthumb -0.474568 -21.9785
lclavicle -4.05521e-014 -8.74653e-015
lhumerus 38.0017 55.805 123.019
lradius 10.7022
lwrist -69.8668
lhand -8.3782 22.4901
lfingers 7.12502
lthumb 17.5449 51.7184
rfemur -66.3854 2.67207 26.7587
rtibia 60.8275
rfoot -10.1299 -10.0412
rtoes -10.3721
lfemur -71.3739 -2.38582 -16.5594
ltibia 46.875
lfoot -16.3191 15.175
ltoes 10.8453
1251
root 0.328145 26.4955 1.26574 791.354 101.101 748.43
lowerback 9.71447 1.39285 -6.53012
upperback 3.27624 1.31461 -1.95999
thorax -2.12085 0.704161 1.48073
lowerneck -1.14042 2.97934 -5.30622
upperneck -17.3962 4.90984 2.91216
head -5.24388 2.85782 1.55351
rclavicle 3.26007e-014 3.97569e-014
rhumerus -0.126346 12.198 -99.2958
rradius 35.034
rwrist 3.41452
rhand -27.1869 8.02441
rfingers 7.12502
rthumb -0.600637 -21.9545
lclavicle 3.26007e-014 3.97569e-014
lhumerus 36.304 54.08 121.004
lradius 10.9859
lwrist -67.2265
lhand -7.93392 23.1714
lfingers 7.12502
lthumb 17.9724 52.361
rfemur -66.5398 2.74951 26.7839
rtibia 61.6404
rfoot -10.0507 -10.0548
rtoes -11.0089
lfemur -71.9872 -2.29735 -16.4838
ltibia 47.715
lfoot -16.0478 15.0587
ltoes 8.36229
